<svg width="31" height="31" viewBox="0 0 31 31" fill="none" xmlns="http://www.w3.org/2000/svg">
<circle cx="15.5" cy="15.5" r="15.5" fill="#C3D9FA"/>
<path d="M11.0341 22V20.4773L15.0739 16.517C15.4602 16.1269 15.7822 15.7803 16.0398 15.4773C16.2973 15.1742 16.4905 14.8807 16.6193 14.5966C16.7481 14.3125 16.8125 14.0095 16.8125 13.6875C16.8125 13.3201 16.7292 13.0057 16.5625 12.7443C16.3958 12.4792 16.1667 12.2746 15.875 12.1307C15.5833 11.9867 15.2519 11.9148 14.8807 11.9148C14.4981 11.9148 14.1629 11.9943 13.875 12.1534C13.5871 12.3087 13.3636 12.5303 13.2045 12.8182C13.0492 13.1061 12.9716 13.4489 12.9716 13.8466H10.9659C10.9659 13.108 11.1345 12.4659 11.4716 11.9205C11.8087 11.375 12.2727 10.9527 12.8636 10.6534C13.4583 10.3542 14.1402 10.2045 14.9091 10.2045C15.6894 10.2045 16.375 10.3504 16.9659 10.642C17.5568 10.9337 18.0152 11.3333 18.3409 11.8409C18.6705 12.3485 18.8352 12.928 18.8352 13.5795C18.8352 14.0152 18.7519 14.4432 18.5852 14.8636C18.4186 15.2841 18.125 15.75 17.7045 16.2614C17.2879 16.7727 16.7027 17.392 15.9489 18.1193L13.9432 20.1591V20.2386H19.0114V22H11.0341Z" fill="black"/>
</svg>
