<svg width="31" height="31" viewBox="0 0 31 31" fill="none" xmlns="http://www.w3.org/2000/svg">
<circle cx="15.5" cy="15.5" r="15.5" fill="#C3D9FA"/>
<path d="M15.2102 21.1591C14.392 21.1591 13.6648 21.0189 13.0284 20.7386C12.3958 20.4583 11.8958 20.0682 11.5284 19.5682C11.161 19.0682 10.9659 18.4905 10.9432 17.8352H13.0795C13.0985 18.1496 13.2027 18.4242 13.392 18.6591C13.5814 18.8902 13.8333 19.0701 14.1477 19.1989C14.4621 19.3277 14.8144 19.392 15.2045 19.392C15.6212 19.392 15.9905 19.3201 16.3125 19.1761C16.6345 19.0284 16.8864 18.8239 17.0682 18.5625C17.25 18.3011 17.339 18 17.3352 17.6591C17.339 17.3068 17.2481 16.9962 17.0625 16.7273C16.8769 16.4583 16.608 16.2481 16.2557 16.0966C15.9072 15.9451 15.4867 15.8693 14.9943 15.8693H13.9659V14.2443H14.9943C15.3996 14.2443 15.7538 14.1742 16.0568 14.0341C16.3636 13.8939 16.6042 13.697 16.7784 13.4432C16.9527 13.1856 17.0379 12.8883 17.0341 12.5511C17.0379 12.2216 16.964 11.9356 16.8125 11.6932C16.6648 11.447 16.4545 11.2557 16.1818 11.1193C15.9129 10.983 15.5966 10.9148 15.233 10.9148C14.8769 10.9148 14.5473 10.9792 14.2443 11.108C13.9413 11.2367 13.697 11.4205 13.5114 11.6591C13.3258 11.8939 13.2273 12.1742 13.2159 12.5H11.1875C11.2027 11.8485 11.3902 11.2765 11.75 10.7841C12.1136 10.2879 12.5985 9.90151 13.2045 9.625C13.8106 9.3447 14.4905 9.20455 15.2443 9.20455C16.0208 9.20455 16.6951 9.35038 17.267 9.64205C17.8428 9.92992 18.2879 10.3182 18.6023 10.8068C18.9167 11.2955 19.0739 11.8352 19.0739 12.4261C19.0777 13.0814 18.8845 13.6307 18.4943 14.0739C18.108 14.517 17.6004 14.8068 16.9716 14.9432V15.0341C17.7898 15.1477 18.4167 15.4508 18.8523 15.9432C19.2917 16.4318 19.5095 17.0398 19.5057 17.767C19.5057 18.4186 19.3201 19.0019 18.9489 19.517C18.5814 20.0284 18.0739 20.4299 17.4261 20.7216C16.7822 21.0133 16.0436 21.1591 15.2102 21.1591Z" fill="black"/>
</svg>
