<svg width="25" height="25" viewBox="0 0 25 25" fill="none" xmlns="http://www.w3.org/2000/svg">
<circle cx="12.5" cy="12.5" r="12.5" fill="#F66B2F"/>
<circle cx="12.5" cy="12.5" r="12.5" fill="#F66B2F"/>
<circle cx="12.5" cy="12.5" r="9.5" fill="white"/>
<circle cx="12.5" cy="12.5" r="9.5" fill="white"/>
<circle cx="9" cy="10" r="2" fill="#F66B2F"/>
<circle cx="9" cy="10" r="2" fill="#F66B2F"/>
<circle cx="9" cy="10" r="2" fill="#F66B2F"/>
<circle cx="9" cy="10" r="2" fill="#F66B2F"/>
<circle cx="14.5" cy="10.5" r="1.5" fill="#F66B2F"/>
<circle cx="14.5" cy="10.5" r="1.5" fill="#F66B2F"/>
<circle cx="14.5" cy="10.5" r="1.5" fill="#F66B2F"/>
<circle cx="14.5" cy="10.5" r="1.5" fill="#F66B2F"/>
<path d="M7.65277 15.7155C7.4815 15.5287 7.54955 15.2284 7.7846 15.1337L10.9885 13.8425C11.3439 13.6993 11.6834 14.1624 11.4757 14.4844C10.6669 15.738 10.5591 16.7647 10.7524 18.0372C10.8085 18.4065 10.3434 18.6498 10.0909 18.3745L7.65277 15.7155Z" fill="#F66B2F"/>
<path d="M13.6407 14.1881C13.6527 13.935 13.9139 13.7719 14.1467 13.8721L18.2559 15.6415C18.4879 15.7414 18.5488 16.0422 18.3597 16.2097C16.8773 17.5234 15.4782 17.3961 14.3453 18.1724C14.0371 18.3836 13.4513 18.1647 13.4691 17.7916L13.6407 14.1881Z" fill="#F66B2F"/>
</svg>
