<svg width="43" height="38" viewBox="0 0 43 38" fill="none" xmlns="http://www.w3.org/2000/svg">
<path fill-rule="evenodd" clip-rule="evenodd" d="M21.5 38C24.3234 38 27.1192 37.5086 29.7277 36.5537C32.3362 35.5989 34.7063 34.1993 36.7028 32.435C38.6993 30.6707 40.2829 28.5762 41.3634 26.271C42.4439 23.9658 43 21.4951 43 19C43 16.5049 42.4439 14.0342 41.3634 11.729C40.2829 9.42383 38.6993 7.32928 36.7028 5.56497C34.7063 3.80066 32.3362 2.40113 29.7277 1.44629C27.1192 0.491449 24.3234 -3.71801e-08 21.5 0C15.7978 7.50886e-08 10.3292 2.00178 6.2972 5.56497C2.26517 9.12816 0 13.9609 0 19C0 24.0391 2.26517 28.8718 6.2972 32.435C10.3292 35.9982 15.7978 38 21.5 38ZM20.9458 26.6844L32.8902 14.0178L29.2209 11.3156L18.9487 22.2068L13.6334 17.5074L10.2555 20.4926L17.4222 26.8259L19.2712 28.4599L20.9458 26.6844Z" fill="#041D40"/>
</svg>
