<svg width="43" height="38" viewBox="0 0 43 38" fill="none" xmlns="http://www.w3.org/2000/svg">
<path d="M39.0909 0H3.90909C2.87234 0 1.87804 0.44484 1.14495 1.23666C0.41185 2.02848 0 3.10242 0 4.22222V10.5556H3.90909V4.22222H39.0909V33.7778H25.4091V38H39.0909C40.1277 38 41.122 37.5552 41.8551 36.7633C42.5882 35.9715 43 34.8976 43 33.7778V4.22222C43 3.10242 42.5882 2.02848 41.8551 1.23666C41.122 0.44484 40.1277 0 39.0909 0ZM0 31.6667V38H5.86364C5.86364 36.3203 5.24586 34.7094 4.14622 33.5217C3.04657 32.3339 1.55513 31.6667 0 31.6667ZM0 23.2222V27.4444C1.28337 27.4444 2.55418 27.7175 3.73986 28.2479C4.92554 28.7784 6.00288 29.5559 6.91036 30.5361C7.81784 31.5163 8.5377 32.6799 9.02882 33.9606C9.51995 35.2412 9.77273 36.6138 9.77273 38H13.6818C13.6818 34.0807 12.2403 30.3219 9.67451 27.5505C7.10867 24.7792 3.62864 23.2222 0 23.2222ZM0 14.7778V19C2.31007 19 4.59752 19.4914 6.73175 20.4463C8.86598 21.4011 10.8052 22.8007 12.4387 24.565C14.0721 26.3293 15.3679 28.4238 16.2519 30.729C17.1359 33.0342 17.5909 35.5049 17.5909 38H21.5C21.5 25.1644 11.8641 14.7778 0 14.7778ZM19.5455 17.0789V21.3011L26.3864 25.3333L33.2273 21.3011V17.0789L26.3864 21.1111L19.5455 17.0789ZM26.3864 6.33333L15.6364 12.6667L26.3864 19L37.1364 12.6667L26.3864 6.33333Z" fill="#041D40"/>
</svg>
