<svg width="45" height="41" viewBox="0 0 45 41" fill="none" xmlns="http://www.w3.org/2000/svg">
<path d="M22.5017 8.2063H22.5002C17.7241 8.2063 13.8522 10.7644 13.8522 13.9199V26.7907C13.8522 29.9462 17.7241 32.5043 22.5002 32.5043H22.5017C27.2779 32.5043 31.1497 29.9462 31.1497 26.7907V13.9199C31.1497 10.7644 27.2779 8.2063 22.5017 8.2063Z" stroke="#041D40" stroke-width="1.31698" stroke-linecap="round" stroke-linejoin="round"/>
<path d="M13.852 20.3553H31.148H13.852ZM37.7767 14.7214H44H37.7767ZM7.22333 14.7214H1H7.22333ZM35.0137 8.93196L40.1119 6.57384L35.0137 8.93196ZM27.7249 5.23675L29.853 1.37218L27.7249 5.23675ZM18.5463 4.97189L16.9354 1L18.5463 4.97189ZM10.797 8.23388L6.02963 5.59022L10.797 8.23388ZM25.6489 37.0227C24.6743 37.4805 23.491 37.7562 22.2034 37.7562C20.9159 37.7562 19.7326 37.4805 18.758 37.0227M23.3196 39.1632C22.9944 39.3172 22.6043 39.4 22.2042 39.4C21.8041 39.4 21.414 39.3172 21.0887 39.1632M25.6489 33.8296C24.6743 34.2874 23.491 34.5622 22.2034 34.5622C20.9159 34.5622 19.7326 34.2865 18.758 33.8296M18.758 35.4266C19.7326 35.8845 20.9173 36.1592 22.2034 36.1592C23.4895 36.1592 24.6743 35.8835 25.6489 35.4266" fill="#041D40"/>
<path d="M13.852 20.3553H31.148M37.7767 14.7214H44M7.22333 14.7214H1M35.0137 8.93196L40.1119 6.57384M27.7249 5.23675L29.853 1.37218M18.5463 4.97189L16.9354 1M10.797 8.23388L6.02963 5.59022M25.6489 37.0227C24.6743 37.4805 23.491 37.7562 22.2034 37.7562C20.9159 37.7562 19.7326 37.4805 18.758 37.0227M23.3196 39.1632C22.9944 39.3172 22.6043 39.4 22.2042 39.4C21.8041 39.4 21.414 39.3172 21.0887 39.1632M25.6489 33.8296C24.6743 34.2874 23.491 34.5622 22.2034 34.5622C20.9159 34.5622 19.7326 34.2865 18.758 33.8296M18.758 35.4266C19.7326 35.8845 20.9173 36.1592 22.2034 36.1592C23.4895 36.1592 24.6743 35.8835 25.6489 35.4266" stroke="#041D40" stroke-width="1.31698" stroke-linecap="round" stroke-linejoin="round"/>
</svg>
