<svg width="43" height="39" viewBox="0 0 43 39" fill="none" xmlns="http://www.w3.org/2000/svg">
<path d="M3.63103 12.2887C3.45244 12.0748 3.23601 11.9047 2.99543 11.789C2.75486 11.6733 2.49539 11.6146 2.23345 11.6167C1.35189 11.6167 0.685354 12.0727 0.255327 13.0088C-0.174699 13.9448 -0.067192 14.8329 0.62085 15.673C3.158 18.2171 4.7706 20.0172 5.45864 21.0733C6.3402 22.4174 6.77023 24.3855 6.77023 26.9296C6.77023 30.0738 7.84529 32.402 9.99542 34.0101C11.1995 35.0661 12.5111 35.8582 13.9732 36.3862V27.0497C13.9732 24.7935 13.2636 22.9214 11.909 21.4093M31.0882 21.5293C29.7551 23.0174 29.0241 24.8655 29.0241 27.0497V36.4822C31.0882 35.6662 32.8083 34.3941 34.2274 32.714C35.625 31.0339 36.3345 29.1858 36.3345 26.9296C36.3345 24.2175 36.743 22.2734 37.5601 21.0733C37.7536 20.6893 38.1191 20.2092 38.6997 19.6092C39.1942 19.0092 39.7102 18.4331 40.2263 17.9051C40.7208 17.4011 41.2153 16.873 41.6884 16.345L42.3979 15.673C42.5901 15.469 42.7428 15.2232 42.8463 14.9507C42.9499 14.6782 43.0022 14.3849 42.9999 14.0889C42.9999 13.4168 42.8064 12.8168 42.3979 12.3368C41.9894 11.8567 41.4948 11.6167 40.8498 11.6167C40.2048 11.6167 39.7747 11.8327 39.3662 12.2887M21.4986 38.4023C22.9822 38.4023 24.4228 38.1863 25.7989 37.7303V29.1618C25.7989 27.7457 25.4119 26.6416 24.5303 25.5856C23.6488 24.5295 22.6382 24.0015 21.4986 24.0015C20.3591 24.0015 19.3485 24.4815 18.5314 25.4656C17.6714 26.4016 17.1984 27.5057 17.1984 28.9458V37.7303C18.5744 38.1863 20.015 38.4023 21.4986 38.4023ZM15.0482 10.8007C15.0482 12.7928 13.6076 14.4009 11.823 14.4009C10.0384 14.4009 8.59784 12.7928 8.59784 10.8007C8.59784 8.80854 10.0384 7.20044 11.823 7.20044C13.6076 7.20044 15.0482 8.80854 15.0482 10.8007ZM34.3994 10.8007C34.3994 12.7928 32.9588 14.4009 31.1742 14.4009C29.3896 14.4009 27.949 12.7928 27.949 10.8007C27.949 8.80854 29.3896 7.20044 31.1742 7.20044C32.9588 7.20044 34.3994 8.80854 34.3994 10.8007ZM24.7238 3.60022C24.7238 5.59234 23.2832 7.20044 21.4986 7.20044C19.714 7.20044 18.2734 5.59234 18.2734 3.60022C18.2734 1.6081 19.714 0 21.4986 0C23.2832 0 24.7238 1.6081 24.7238 3.60022ZM24.7238 16.801C24.7238 18.7931 23.2832 20.4012 21.4986 20.4012C19.714 20.4012 18.2734 18.7931 18.2734 16.801C18.2734 14.8089 19.714 13.2008 21.4986 13.2008C23.2832 13.2008 24.7238 14.8089 24.7238 16.801Z" fill="#041D40"/>
</svg>
