<svg width="43" height="38" viewBox="0 0 43 38" fill="none" xmlns="http://www.w3.org/2000/svg">
<path d="M37.1364 36.066C37.1364 36.5789 36.9304 37.0709 36.5639 37.4335C36.1973 37.7962 35.7002 38 35.1818 38H7.81818C7.2998 38 6.80266 37.7962 6.43611 37.4335C6.06956 37.0709 5.86364 36.5789 5.86364 36.066V18.66H0L20.1846 0.503532C20.5444 0.179544 21.0135 0 21.5 0C21.9865 0 22.4556 0.179544 22.8154 0.503532L43 18.66H37.1364V36.066ZM21.5 26.396C22.7959 26.396 24.0388 25.8866 24.9552 24.9798C25.8716 24.0731 26.3864 22.8433 26.3864 21.561C26.3864 20.2786 25.8716 19.0488 24.9552 18.1421C24.0388 17.2354 22.7959 16.726 21.5 16.726C20.2041 16.726 18.9612 17.2354 18.0448 18.1421C17.1284 19.0488 16.6136 20.2786 16.6136 21.561C16.6136 22.8433 17.1284 24.0731 18.0448 24.9798C18.9612 25.8866 20.2041 26.396 21.5 26.396Z" fill="#041D40"/>
</svg>
