<svg width="43" height="38" viewBox="0 0 43 38" fill="none" xmlns="http://www.w3.org/2000/svg">
<path d="M36.55 20.9V26.6L30.1 20.9H17.2C16.0596 20.9 14.9658 20.4996 14.1594 19.787C13.353 19.0744 12.9 18.1078 12.9 17.1V3.8C12.9 1.71 14.835 0 17.2 0H38.7C39.8404 0 40.9342 0.400356 41.7406 1.11299C42.547 1.82563 43 2.79218 43 3.8V17.1C43 18.1078 42.547 19.0744 41.7406 19.787C40.9342 20.4996 39.8404 20.9 38.7 20.9H36.55ZM30.1 24.7V28.5C30.1 29.5078 29.647 30.4744 28.8406 31.187C28.0342 31.8996 26.9404 32.3 25.8 32.3H12.9L6.45 38V32.3H4.3C3.15957 32.3 2.06585 31.8996 1.25944 31.187C0.453035 30.4744 0 29.5078 0 28.5V15.2C0 13.11 1.935 11.4 4.3 11.4H8.6V17.1C8.6 19.1156 9.50607 21.0487 11.1189 22.474C12.7317 23.8993 14.9191 24.7 17.2 24.7H30.1Z" fill="#041D40"/>
</svg>
